<svg width="189" height="249" viewBox="0 0 189 249" fill="none" xmlns="http://www.w3.org/2000/svg">
<rect x="2" y="2" width="187" height="247" rx="16" fill="#ACACAC"/>
<rect x="2" y="2" width="185" height="245" rx="16" fill="#BEBEBE"/>
<rect x="9.5" y="9.5" width="170" height="230" rx="10.5" stroke="#E5E5E5" stroke-width="3"/>
<path d="M57.7969 122.391H59.2188V117.422H61.0938V130.781H59.2188V123.984H57.7969V127.859H52.1406V118.688H57.7969V122.391ZM54 126.297H55.9375V120.266H54V126.297ZM64.0625 131.438H62.1562V117.219H64.0625V131.438ZM77.0938 123.297H67.1406V117.859H69.125V121.703H77.0938V123.297ZM78.5312 126.5H75.5625V131.438H73.5469V126.5H70.5625V131.438H68.5625V126.5H65.5625V124.906H78.5312V126.5ZM87.625 119.75C87.625 120.281 87.7188 120.792 87.9062 121.281C88.099 121.766 88.3958 122.206 88.7969 122.602C89.1979 122.992 89.7031 123.302 90.3125 123.531L89.25 125.047C88.6615 124.823 88.1536 124.51 87.7266 124.109C87.2995 123.708 86.9531 123.237 86.6875 122.695C86.4167 123.336 86.0521 123.898 85.5938 124.383C85.1406 124.862 84.5938 125.234 83.9531 125.5L82.875 123.969C83.5156 123.688 84.0443 123.323 84.4609 122.875C84.8828 122.422 85.1927 121.927 85.3906 121.391C85.5885 120.854 85.6875 120.307 85.6875 119.75V118.078H87.625V119.75ZM95.2969 125.922H93.4062V122.312H92.2188V125.484H90.3594V117.484H92.2188V120.703H93.4062V117.234H95.2969V125.922ZM90.4375 126.125C91.4323 126.125 92.2995 126.232 93.0391 126.445C93.7839 126.659 94.3568 126.966 94.7578 127.367C95.1641 127.763 95.3698 128.234 95.375 128.781C95.3698 129.328 95.1641 129.799 94.7578 130.195C94.3568 130.596 93.7839 130.904 93.0391 131.117C92.2995 131.331 91.4323 131.438 90.4375 131.438C89.4375 131.438 88.5677 131.331 87.8281 131.117C87.0885 130.904 86.5182 130.596 86.1172 130.195C85.7161 129.799 85.5156 129.328 85.5156 128.781C85.5156 128.234 85.7161 127.763 86.1172 127.367C86.5182 126.966 87.0885 126.659 87.8281 126.445C88.5677 126.232 89.4375 126.125 90.4375 126.125ZM90.4375 127.609C89.5 127.609 88.776 127.711 88.2656 127.914C87.7604 128.112 87.5104 128.401 87.5156 128.781C87.5104 129.161 87.7604 129.451 88.2656 129.648C88.7708 129.841 89.4948 129.938 90.4375 129.938C91.3698 129.938 92.0885 129.841 92.5938 129.648C93.1042 129.451 93.3594 129.161 93.3594 128.781C93.3594 128.401 93.1042 128.112 92.5938 127.914C92.0885 127.711 91.3698 127.609 90.4375 127.609ZM108.188 120.547H110.109V122.203H108.188V125.484H106.188V117.219H108.188V120.547ZM104.188 118.016C104.188 119.901 103.615 121.477 102.469 122.742C101.328 124.008 99.6823 124.911 97.5312 125.453L96.7031 123.938C98.2917 123.542 99.5365 122.966 100.438 122.211C101.344 121.451 101.875 120.578 102.031 119.594H97.4531V118.016H104.188ZM108.188 131.438H106.188V127.641H98.6094V126.047H108.188V131.438ZM123.703 125.281H118.203V126.336C119.453 126.424 120.422 126.688 121.109 127.125C121.802 127.562 122.151 128.146 122.156 128.875C122.151 129.417 121.951 129.878 121.555 130.258C121.159 130.643 120.591 130.935 119.852 131.133C119.112 131.336 118.229 131.438 117.203 131.438C116.161 131.438 115.268 131.336 114.523 131.133C113.779 130.935 113.208 130.643 112.812 130.258C112.417 129.878 112.219 129.417 112.219 128.875C112.219 128.141 112.568 127.555 113.266 127.117C113.964 126.68 114.948 126.417 116.219 126.328V125.281H110.734V123.672H123.703V125.281ZM117.203 127.797C116.214 127.807 115.471 127.901 114.977 128.078C114.487 128.255 114.245 128.521 114.25 128.875C114.24 129.219 114.484 129.482 114.984 129.664C115.484 129.846 116.224 129.938 117.203 129.938C118.161 129.938 118.891 129.846 119.391 129.664C119.891 129.482 120.146 129.219 120.156 128.875C120.141 128.172 119.156 127.812 117.203 127.797ZM122.531 119.391H118.664C118.784 119.74 119.029 120.065 119.398 120.367C119.773 120.669 120.276 120.93 120.906 121.148C121.542 121.362 122.292 121.505 123.156 121.578L122.453 123.141C121.141 123.016 120.034 122.719 119.133 122.25C118.237 121.781 117.594 121.193 117.203 120.484C116.818 121.193 116.177 121.781 115.281 122.25C114.391 122.719 113.286 123.016 111.969 123.141L111.312 121.578C112.156 121.505 112.891 121.362 113.516 121.148C114.141 120.93 114.638 120.669 115.008 120.367C115.383 120.06 115.633 119.734 115.758 119.391H111.922V117.828H122.531V119.391ZM126.406 130.141C126.167 130.141 125.945 130.081 125.742 129.961C125.539 129.841 125.378 129.682 125.258 129.484C125.143 129.281 125.089 129.062 125.094 128.828C125.089 128.594 125.143 128.378 125.258 128.18C125.378 127.982 125.539 127.826 125.742 127.711C125.945 127.591 126.167 127.531 126.406 127.531C126.63 127.531 126.841 127.591 127.039 127.711C127.242 127.826 127.404 127.982 127.523 128.18C127.643 128.378 127.703 128.594 127.703 128.828C127.703 129.062 127.643 129.281 127.523 129.484C127.404 129.682 127.242 129.841 127.039 129.961C126.841 130.081 126.63 130.141 126.406 130.141ZM130.922 130.141C130.682 130.141 130.461 130.081 130.258 129.961C130.055 129.841 129.893 129.682 129.773 129.484C129.659 129.281 129.604 129.062 129.609 128.828C129.604 128.594 129.659 128.378 129.773 128.18C129.893 127.982 130.055 127.826 130.258 127.711C130.461 127.591 130.682 127.531 130.922 127.531C131.146 127.531 131.357 127.591 131.555 127.711C131.758 127.826 131.919 127.982 132.039 128.18C132.159 128.378 132.219 128.594 132.219 128.828C132.219 129.062 132.159 129.281 132.039 129.484C131.919 129.682 131.758 129.841 131.555 129.961C131.357 130.081 131.146 130.141 130.922 130.141ZM135.438 130.141C135.198 130.141 134.977 130.081 134.773 129.961C134.57 129.841 134.409 129.682 134.289 129.484C134.174 129.281 134.12 129.062 134.125 128.828C134.12 128.594 134.174 128.378 134.289 128.18C134.409 127.982 134.57 127.826 134.773 127.711C134.977 127.591 135.198 127.531 135.438 127.531C135.661 127.531 135.872 127.591 136.07 127.711C136.273 127.826 136.435 127.982 136.555 128.18C136.674 128.378 136.734 128.594 136.734 128.828C136.734 129.062 136.674 129.281 136.555 129.484C136.435 129.682 136.273 129.841 136.07 129.961C135.872 130.081 135.661 130.141 135.438 130.141Z" fill="white"/>
</svg>
