<svg width="464" height="458" viewBox="0 0 464 458" fill="none" xmlns="http://www.w3.org/2000/svg">
<ellipse cx="235.238" cy="229.365" rx="145" ry="165" fill="url(#paint0_radial_570_2445)" fill-opacity="0.5"/>
<path d="M369.957 44.3651L436.957 123.365L234.957 227.365L369.957 44.3651Z" fill="url(#paint1_linear_570_2445)"/>
<path d="M76.4575 61.8652L113.458 33.3664L231.458 228.365L76.4575 61.8652Z" fill="url(#paint2_linear_570_2445)"/>
<path d="M126.457 431.865L45.9574 361.363L232.957 231.365L126.457 431.865Z" fill="url(#paint3_linear_570_2445)"/>
<path d="M17.4575 307.865L4.45755 212.864L231.958 230.365L17.4575 307.865Z" fill="url(#paint4_linear_570_2445)"/>
<path d="M296.93 441.879L204.659 448.607L234.936 231.867L296.93 441.879Z" fill="url(#paint5_linear_570_2445)"/>
<path d="M463.458 232.365L455.958 291.365L237.458 229.365L463.458 232.365Z" fill="url(#paint6_linear_570_2445)"/>
<path d="M443.457 322.866L423.58 358.867L237.458 230.865L443.457 322.866Z" fill="url(#paint7_linear_570_2445)"/>
<circle cx="323.738" cy="68.8652" r="3.5" fill="white"/>
<circle cx="137.738" cy="436.865" r="3.5" fill="white"/>
<circle cx="58.7383" cy="158.865" r="3.5" fill="white"/>
<circle cx="78.7383" cy="305.865" r="3.5" fill="white"/>
<circle cx="72.7383" cy="411.865" r="3.5" fill="white"/>
<circle cx="94.7383" cy="104.865" r="3.5" fill="white"/>
<circle cx="330.738" cy="409.865" r="3.5" fill="white"/>
<circle cx="410.738" cy="182.865" r="3.5" fill="white"/>
<circle cx="94.7383" cy="53.8652" r="2.5" fill="white" fill-opacity="0.6"/>
<circle cx="123.738" cy="431.865" r="2.5" fill="white" fill-opacity="0.6"/>
<circle cx="44.7383" cy="153.865" r="2.5" fill="white" fill-opacity="0.6"/>
<circle cx="64.7383" cy="300.865" r="2.5" fill="white" fill-opacity="0.6"/>
<circle cx="337.738" cy="434.865" r="2.5" fill="white" fill-opacity="0.6"/>
<circle cx="417.738" cy="207.865" r="2.5" fill="white" fill-opacity="0.6"/>
<circle cx="308.738" cy="411.865" r="2.5" fill="white" fill-opacity="0.6"/>
<circle cx="388.738" cy="184.865" r="2.5" fill="white" fill-opacity="0.6"/>
<circle cx="391.738" cy="76.8652" r="2.5" fill="white" fill-opacity="0.6"/>
<circle cx="394.738" cy="395.865" r="3.5" fill="white"/>
<circle cx="332.738" cy="58.8652" r="2.5" fill="white" fill-opacity="0.6"/>
<defs>
<radialGradient id="paint0_radial_570_2445" cx="0" cy="0" r="1" gradientUnits="userSpaceOnUse" gradientTransform="translate(235.238 229.365) rotate(90) scale(165 145)">
<stop stop-color="white"/>
<stop offset="1" stop-color="white" stop-opacity="0.1"/>
</radialGradient>
<linearGradient id="paint1_linear_570_2445" x1="399.469" y1="90.7576" x2="299.812" y2="161.764" gradientUnits="userSpaceOnUse">
<stop stop-color="white" stop-opacity="0"/>
<stop offset="1" stop-color="white"/>
</linearGradient>
<linearGradient id="paint2_linear_570_2445" x1="96.0897" y1="56.2414" x2="155.435" y2="126.966" gradientUnits="userSpaceOnUse">
<stop stop-color="white" stop-opacity="0"/>
<stop offset="1" stop-color="white"/>
</linearGradient>
<linearGradient id="paint3_linear_570_2445" x1="100.974" y1="374.945" x2="197.041" y2="299.154" gradientUnits="userSpaceOnUse">
<stop stop-color="white" stop-opacity="0"/>
<stop offset="1" stop-color="white"/>
</linearGradient>
<linearGradient id="paint4_linear_570_2445" x1="46.9054" y1="258.036" x2="158.048" y2="238.438" gradientUnits="userSpaceOnUse">
<stop stop-color="white" stop-opacity="0"/>
<stop offset="1" stop-color="white"/>
</linearGradient>
<linearGradient id="paint5_linear_570_2445" x1="250.84" y1="444.31" x2="242.128" y2="330.972" gradientUnits="userSpaceOnUse">
<stop stop-color="white" stop-opacity="0"/>
<stop offset="1" stop-color="white"/>
</linearGradient>
<linearGradient id="paint6_linear_570_2445" x1="429.831" y1="256.011" x2="322.969" y2="244.47" gradientUnits="userSpaceOnUse">
<stop stop-color="white" stop-opacity="0"/>
<stop offset="1" stop-color="white"/>
</linearGradient>
<linearGradient id="paint7_linear_570_2445" x1="416.911" y1="321.854" x2="304.908" y2="273.964" gradientUnits="userSpaceOnUse">
<stop stop-color="white" stop-opacity="0"/>
<stop offset="1" stop-color="white"/>
</linearGradient>
</defs>
</svg>
